<!DOCTYPE svg PUBLIC "-//W3C//DTD SVG 1.1//EN" "http://www.w3.org/Graphics/SVG/1.1/DTD/svg11.dtd">
<!-- Uploaded to: SVG Repo, www.svgrepo.com, Transformed by: SVG Repo Mixer Tools -->
<svg fill="#0080ff" width="800px" height="800px" viewBox="0 0 256 256" id="Flat" xmlns="http://www.w3.org/2000/svg" stroke="#0080ff">
<g id="SVGRepo_bgCarrier" stroke-width="0"/>
<g id="SVGRepo_tracerCarrier" stroke-linecap="round" stroke-linejoin="round"/>
<g id="SVGRepo_iconCarrier"> <path d="M208,32H48A16.02085,16.02085,0,0,0,32,48V208a16.02085,16.02085,0,0,0,16,16H208a16.02085,16.02085,0,0,0,16-16V48A16.02085,16.02085,0,0,0,208,32ZM139.99219,175.99219a8,8,0,0,1-16,0V98.95313l-11.54688,7.69531a7.99982,7.99982,0,1,1-8.875-13.3125l23.98438-15.99219A7.99941,7.99941,0,0,1,139.99219,84Z"/> </g>
</svg>