<!DOCTYPE svg PUBLIC "-//W3C//DTD SVG 1.1//EN" "http://www.w3.org/Graphics/SVG/1.1/DTD/svg11.dtd">
<!-- Uploaded to: SVG Repo, www.svgrepo.com, Transformed by: SVG Repo Mixer Tools -->
<svg version="1.1" id="Layer_1" xmlns="http://www.w3.org/2000/svg" xmlns:xlink="http://www.w3.org/1999/xlink" viewBox="0 0 473.931 473.931" xml:space="preserve" width="800px" height="800px" fill="#000000">
<g id="SVGRepo_bgCarrier" stroke-width="0"/>
<g id="SVGRepo_tracerCarrier" stroke-linecap="round" stroke-linejoin="round"/>
<g id="SVGRepo_iconCarrier"> <circle style="fill:#00ffff;" cx="236.966" cy="236.966" r="236.966"/> <polygon style="fill:#5B4F3F;" points="330.038,134.898 330.038,124.578 125.776,124.578 125.776,134.898 125.776,369.17 330.038,369.17 "/> <path style="fill:#82725A;" d="M125.776,288.104h204.263v-71.501H125.776V288.104z M187.627,248.15h80.549v18.881h-10.211 l-0.004-8.662h-60.115v9.276h-10.215V248.15H187.627z M125.776,369.17h204.263v-71.49H125.776V369.17z M187.627,329.208h80.549v18.9 h-10.211l-0.004-8.67h-60.115v9.28h-10.215v-19.51H187.627z M330.076,114.655H125.787v10.032h204.289V114.655z"/> <polygon style="fill:#5B4F3F;" points="329.952,135.089 329.952,124.773 353.649,103.108 353.649,113.424 353.649,347.696 329.952,369.364 "/> <path style="fill:#7B6854;" d="M353.78,113.233v71.494l-23.697,21.665v-71.494L353.78,113.233z M353.78,266.44l-23.697,21.665 v-71.501l23.697-21.665V266.44z M353.78,347.501l-23.697,21.669v-71.49l23.697-21.665V347.501z M330.076,114.655l23.697-21.665 v10.032l-23.697,21.665V114.655z"/> <polygon style="fill:#9A866F;" points="353.772,92.99 149.599,92.99 125.787,114.655 330.076,114.655 "/> <polygon style="fill:#7B6854;" points="126.03,134.385 126.03,205.875 100.272,229.606 100.272,158.112 "/> <rect x="126.03" y="134.404" style="fill:#473D2E;" width="203.514" height="71.505"/> <rect x="99.467" y="157.603" style="fill:#82725A;" width="204.263" height="71.505"/> <polygon style="fill:#5B4F3F;" points="241.871,208.027 231.664,208.027 231.656,199.361 171.537,199.361 171.537,208.629 161.322,208.629 161.322,189.142 241.871,189.142 "/> <polygon style="fill:#7B6854;" points="329.529,134.385 329.529,205.875 303.771,229.606 303.771,158.112 "/> </g>
</svg>